<?xml version="1.0" encoding="iso-8859-1"?>
<!-- Generator: Adobe Illustrator 19.0.0, SVG Export Plug-In . SVG Version: 6.00 Build 0)  -->
<svg version="1.1" id="Layer_1" xmlns="http://www.w3.org/2000/svg" xmlns:xlink="http://www.w3.org/1999/xlink" x="0px" y="0px"
	 viewBox="0 0 476.56 476.56" style="enable-background:new 0 0 476.56 476.56;" xml:space="preserve">
<g>
	<path style="fill:#FCCF92;" d="M247.564,168.94c0.22,1.05,0.55,2.05,0.97,3c-6.14,3.7-10.25,10.44-10.25,18.14
		c0-7.71-4.12-14.46-10.28-18.16c0.45-0.98,0.79-2.02,1.02-3.1l0.13-0.64c2.98,0.31,6.03,0.47,9.13,0.47s6.15-0.15,9.12-0.47
		L247.564,168.94z"/>
	<path style="opacity:0.29;fill:#4D4D4D;enable-background:new    ;" d="M251.386,176.081c-4.07,1.53-8.47,2.36-13.07,2.36
		c-4.62,0-9.05-0.84-13.14-2.38c1.93-1.95,3.2-4.418,3.88-7.24l0.133-0.913c2.98,0.31,6.027,0.743,9.127,0.743
		s6.122-0.344,9.092-0.664l0.21,1.057C248.188,171.793,249.506,174.141,251.386,176.081z"/>
	<path style="fill:#FBB03B;" d="M322.554,84.27c0,46.55-37.73,57.63-84.27,57.63s-84.27-11.08-84.27-57.63
		c0-2.34,0.1-4.66,0.29-6.95C157.834,34.03,194.084,0,238.284,0s80.45,34.02,83.98,77.31C322.454,79.6,322.554,81.93,322.554,84.27z
		"/>
	<path style="fill:#FCCF92;" d="M136.954,266.71l10.19,10.19c-2.35,8.25-3.61,16.96-3.61,25.96v0.22c0.01,2.88-4.11,3.42-4.77,0.61
		c-1.76-7.52-2.7-15.36-2.7-23.42C136.064,275.67,136.364,271.14,136.954,266.71z"/>
	<path style="fill:#FBB03B;" d="M339.614,266.71l-10.19,10.19c-6.9-24.28-23.24-44.59-44.82-56.7v4.91c0,4.82-1.46,9.3-3.96,13.01
		c-5.24,7.78-8.73,16.57-9.84,25.78c-0.25,2.08-0.38,4.19-0.38,6.31v2.18c0,0.74,0.09,1.46,0.26,2.17c0.43,1.82,1.4,3.48,2.81,4.75
		l0.03,0.03c8.87,8.06,14.45,19.69,14.45,32.63v164.59h-99.38V311.97c0-12.94,5.58-24.57,14.45-32.63l0.03-0.03
		c1.41-1.27,2.38-2.93,2.81-4.75c0.17-0.71,0.26-1.43,0.26-2.17v-2.18c0-2.12-0.13-4.23-0.38-6.31c-1.11-9.21-4.6-18-9.84-25.78
		c-2.5-3.71-3.96-8.19-3.96-13.01v-4.91c-21.58,12.11-37.92,32.42-44.82,56.7l-10.19-10.19c4.06-30.63,21.69-56.98,46.65-72.81
		c8.84-5.61,18.61-9.9,29.01-12.6c1.3-0.33,2.6-0.63,3.91-0.91c0.2-0.05,0.41-0.1,0.62-0.14V168.9c3.97,0.01,7.68,1.11,10.86,3.02
		c2.59,1.56,4.82,3.65,6.53,6.14c2.37,3.41,5.13,3.41,7.5,0c1.71-2.49,3.94-4.58,6.53-6.14c3.18-1.91,6.89-3.01,10.86-3.02v11.35
		c0.21,0.04,0.42,0.09,0.62,0.14c1.31,0.28,2.61,0.58,3.91,0.91c10.4,2.7,20.17,6.99,29.01,12.6
		C317.924,209.73,335.554,236.08,339.614,266.71z"/>
	<path style="fill:#FCCF92;" d="M284.604,220.2c0.45,0.25,0.9,0.51,1.35,0.78c-0.45-0.26-0.9-0.52-1.35-0.77V220.2z"/>
	<path style="fill:#FCCF92;" d="M291.204,224.28c1.28,0.86,2.54,1.75,3.78,2.68C293.744,226.04,292.484,225.14,291.204,224.28z"/>
	<path style="fill:#FCCF92;" d="M340.484,278.66c0.13,8.6-0.8,16.97-2.67,24.97c-0.66,2.81-4.79,2.34-4.79-0.55v-0.22
		c0-9-1.26-17.71-3.6-25.96l10.14-10.14C340.114,270.67,340.424,274.64,340.484,278.66z"/>
	<rect x="234.534" y="178.06" style="fill:#E5952C;" width="7.5" height="298.5"/>
	<path style="opacity:0.29;fill:#4D4D4D;enable-background:new    ;" d="M322.554,84.27c0,46.55-37.73,57.63-84.27,57.63
		s-84.27-11.08-84.27-57.63c0-2.34,0.1-4.66,0.29-6.95c48.24,41.46,119.74,41.46,167.96-0.01
		C322.454,79.6,322.554,81.93,322.554,84.27z"/>
	<g>
		<circle style="fill:#E8CAAA;" cx="181.808" cy="102.283" r="14.791"/>
		<circle style="fill:#E8CAAA;" cx="294.754" cy="102.283" r="14.791"/>
	</g>
	<path style="fill:#F9DBB7;" d="M299.156,116.85c0,30.51-22.46,48.31-51.75,51.33c-2.97,0.32-6.02,0.47-9.12,0.47
		c-3.1,0-6.15-0.16-9.13-0.47c-1.49-0.15-2.97-0.34-4.42-0.57c-27.1-4.29-47.33-21.8-47.33-50.76c0-9.67,2.25-19.82,6.27-29.36
		c3.6-8.59,8.62-16.67,14.71-23.51c10.69-12,24.65-20.11,39.9-20.11c23.95,0,44.67,19.97,54.6,43.62
		C296.906,97.03,299.156,107.18,299.156,116.85z"/>
	<path style="fill:#FFFFFF;" d="M250.235,114.967c0,9.697-5.352,17.557-11.954,17.557c-6.602,0-11.954-7.861-11.954-17.557H250.235z
		"/>
	<g>
		<path d="M217.931,108.429c0,0-0.303-0.04-0.778-0.17c-0.234-0.078-0.532-0.14-0.829-0.189c-0.299-0.06-0.603-0.132-0.969-0.186
			c-0.345-0.076-0.715-0.135-1.097-0.183c-0.368-0.082-0.776-0.08-1.158-0.155c-0.403-0.009-0.794-0.077-1.2-0.08
			c-0.401-0.034-0.808-0.022-1.213-0.038c-0.405,0.017-0.811,0.008-1.212,0.041c-0.406,0.007-0.797,0.069-1.199,0.082
			c-0.382,0.074-0.79,0.073-1.157,0.155c-0.382,0.048-0.752,0.107-1.097,0.183c-0.361,0.049-0.682,0.133-0.987,0.199
			c-0.309,0.06-0.594,0.111-0.817,0.178c-0.461,0.116-0.775,0.164-0.775,0.164s0.059-0.289,0.251-0.763
			c0.092-0.242,0.22-0.528,0.416-0.818c0.187-0.301,0.415-0.637,0.719-0.948c0.148-0.161,0.311-0.322,0.481-0.492
			c0.18-0.151,0.376-0.296,0.578-0.452c0.401-0.321,0.883-0.551,1.382-0.808c0.517-0.196,1.06-0.427,1.642-0.519
			c0.574-0.15,1.177-0.162,1.776-0.201c0.599,0.039,1.201,0.054,1.776,0.204c0.581,0.096,1.125,0.322,1.641,0.521
			c0.499,0.257,0.981,0.488,1.381,0.808c0.202,0.156,0.398,0.3,0.578,0.452c0.17,0.17,0.334,0.329,0.481,0.491
			c0.299,0.306,0.545,0.654,0.737,0.96c0.208,0.3,0.323,0.576,0.404,0.807C217.861,108.132,217.931,108.429,217.931,108.429z"/>
		<path d="M273.122,108.429c0,0-0.303-0.04-0.778-0.17c-0.234-0.078-0.532-0.14-0.829-0.189c-0.299-0.06-0.603-0.132-0.969-0.186
			c-0.345-0.076-0.715-0.135-1.097-0.183c-0.368-0.082-0.776-0.08-1.158-0.155c-0.403-0.009-0.794-0.077-1.2-0.08
			c-0.401-0.034-0.808-0.022-1.213-0.038c-0.405,0.017-0.811,0.008-1.212,0.041c-0.406,0.007-0.797,0.069-1.199,0.082
			c-0.382,0.074-0.79,0.073-1.157,0.155c-0.382,0.048-0.752,0.107-1.097,0.183c-0.361,0.049-0.683,0.133-0.987,0.199
			c-0.309,0.06-0.594,0.111-0.817,0.178c-0.461,0.116-0.775,0.164-0.775,0.164s0.059-0.289,0.251-0.763
			c0.092-0.242,0.22-0.528,0.416-0.818c0.187-0.301,0.415-0.637,0.719-0.948c0.148-0.161,0.311-0.322,0.481-0.492
			c0.18-0.151,0.376-0.296,0.578-0.452c0.401-0.321,0.883-0.551,1.382-0.808c0.517-0.196,1.06-0.427,1.642-0.519
			c0.574-0.15,1.177-0.162,1.776-0.201c0.599,0.039,1.201,0.054,1.776,0.204c0.581,0.096,1.125,0.322,1.641,0.521
			c0.499,0.257,0.981,0.488,1.381,0.808c0.202,0.156,0.398,0.3,0.578,0.452c0.17,0.17,0.334,0.329,0.481,0.491
			c0.299,0.306,0.545,0.654,0.737,0.96c0.208,0.3,0.323,0.576,0.404,0.807C273.052,108.132,273.122,108.429,273.122,108.429z"/>
	</g>
	<path style="fill:#4D4D4D;" d="M292.886,87.49c-5.81,4.15-12.93,6.59-20.61,6.59c-16.05,0-29.61-10.66-34-25.28
		c-4.38,14.62-17.94,25.28-34,25.28c-7.68,0-14.79-2.44-20.6-6.59c3.6-8.59,8.62-16.67,14.71-23.51c10.69-12,24.65-20.11,39.9-20.11
		C262.236,43.87,282.956,63.84,292.886,87.49z"/>
	<path style="fill:#E5952C;" d="M263.954,181.3c-2.36,12.01-12.98,21.1-25.67,21.1s-23.31-9.09-25.67-21.1
		c1.3-0.33,2.6-0.63,3.91-0.91c1.94,10.24,10.96,18.01,21.76,18.01c10.8,0,19.82-7.77,21.76-18.01
		C261.354,180.67,262.654,180.97,263.954,181.3z"/>
	<g>
		<path style="fill:#808080;" d="M249.534,213.4h-22.5c-1.519,0-2.75-1.231-2.75-2.75l0,0c0-1.519,1.231-2.75,2.75-2.75h22.5
			c1.519,0,2.75,1.231,2.75,2.75l0,0C252.284,212.169,251.053,213.4,249.534,213.4z"/>
		<path style="fill:#808080;" d="M249.534,234.6h-22.5c-1.519,0-2.75-1.231-2.75-2.75l0,0c0-1.519,1.231-2.75,2.75-2.75h22.5
			c1.519,0,2.75,1.231,2.75,2.75l0,0C252.284,233.369,251.053,234.6,249.534,234.6z"/>
		<path style="fill:#808080;" d="M249.534,255.8h-22.5c-1.519,0-2.75-1.231-2.75-2.75l0,0c0-1.519,1.231-2.75,2.75-2.75h22.5
			c1.519,0,2.75,1.231,2.75,2.75l0,0C252.284,254.569,251.053,255.8,249.534,255.8z"/>
		<path style="fill:#808080;" d="M249.534,277h-22.5c-1.519,0-2.75-1.231-2.75-2.75l0,0c0-1.519,1.231-2.75,2.75-2.75h22.5
			c1.519,0,2.75,1.231,2.75,2.75l0,0C252.284,275.769,251.053,277,249.534,277z"/>
		<path style="fill:#808080;" d="M249.534,298.2h-22.5c-1.519,0-2.75-1.231-2.75-2.75l0,0c0-1.519,1.231-2.75,2.75-2.75h22.5
			c1.519,0,2.75,1.231,2.75,2.75l0,0C252.284,296.969,251.053,298.2,249.534,298.2z"/>
		<path style="fill:#808080;" d="M249.534,319.4h-22.5c-1.519,0-2.75-1.231-2.75-2.75l0,0c0-1.519,1.231-2.75,2.75-2.75h22.5
			c1.519,0,2.75,1.231,2.75,2.75l0,0C252.284,318.169,251.053,319.4,249.534,319.4z"/>
	</g>
	<path style="fill:#E5952C;" d="M197.644,476.56h-9.05V311.97C188.594,311.97,197.644,323.22,197.644,476.56z"/>
	<path style="fill:#E5952C;" d="M278.924,476.56h9.05V311.97C287.974,311.97,278.924,323.22,278.924,476.56z"/>
	<path style="opacity:0.29;fill:#4D4D4D;enable-background:new    ;" d="M270.424,272.39c0,0.74,0.09,1.46,0.26,2.17h-64.8
		c0.17-0.71,0.26-1.43,0.26-2.17v-2.18c0-2.12-0.13-4.23-0.38-6.31h65.04c-0.25,2.08-0.38,4.19-0.38,6.31V272.39z"/>
</g>
<g>
</g>
<g>
</g>
<g>
</g>
<g>
</g>
<g>
</g>
<g>
</g>
<g>
</g>
<g>
</g>
<g>
</g>
<g>
</g>
<g>
</g>
<g>
</g>
<g>
</g>
<g>
</g>
<g>
</g>
</svg>
