<?xml version="1.0" encoding="iso-8859-1"?>
<!-- Generator: Adobe Illustrator 19.0.0, SVG Export Plug-In . SVG Version: 6.00 Build 0)  -->
<svg version="1.1" id="Layer_1" xmlns="http://www.w3.org/2000/svg" xmlns:xlink="http://www.w3.org/1999/xlink" x="0px" y="0px"
	 viewBox="0 0 466.887 466.887" style="enable-background:new 0 0 466.887 466.887;" xml:space="preserve">
<g>
	<polygon style="fill:#808080;" points="191.978,212.73 169.068,377 182.908,380.323 213.068,335 	"/>
	<polygon style="fill:#808080;" points="275.338,212.73 298.248,377 284.407,380.323 254.248,335 	"/>
	<g>
		<circle style="fill:#E8CAAA;" cx="172.47" cy="102.125" r="14.791"/>
		<circle style="fill:#E8CAAA;" cx="294.416" cy="102.125" r="14.791"/>
	</g>
	<path style="fill:#E5952C;" d="M233.447,0c-38.38,0-69.5,13.21-69.5,29.5v36c0,6.12,4.39,11.8,11.91,16.52
		c1.72-5.67,4.08-11.25,6.98-16.52c3.02-5.5,95.09-11.17,101.23,0c2.9,5.27,5.25,10.84,6.97,16.51
		c7.52-4.71,11.91-10.39,11.91-16.51v-36C302.947,13.21,271.837,0,233.447,0z"/>
	<path style="fill:#FBB03B;" d="M233.447,0c-38.384,0-69.5,13.208-69.5,29.5v36c0-16.292,31.116-29.5,69.5-29.5
		s69.5,13.208,69.5,29.5v-36C302.947,13.208,271.831,0,233.447,0z"/>
	<path style="fill:#F9DBB7;" d="M294.318,103.12c0,30.51-22.46,48.31-51.75,51.33c-2.97,0.32-6.02,0.47-9.12,0.47
		c-3.1,0-6.15-0.16-9.13-0.47c-1.49-0.15-2.97-0.34-4.42-0.57c-27.1-4.29-47.33-21.8-47.33-50.76c0-0.85,0.02-1.7,0.05-2.56
		c0.16-3.84,0.65-7.73,1.46-11.62c2.4-11.52,7.54-22.98,14.63-32.68c12.09-4.33,27.7-6.93,44.74-6.93s32.64,2.6,44.73,6.93
		c9.49,12.97,15.47,29.1,16.08,44.29C294.298,101.41,294.318,102.27,294.318,103.12z"/>
	<path style="fill:#FFFFFF;" d="M245.404,110.012c0,9.697-5.352,17.558-11.954,17.558c-6.602,0-11.954-7.861-11.954-17.558H245.404z
		"/>
	<g>
		<path d="M213.099,94.696c0,0-0.303-0.04-0.778-0.17c-0.234-0.078-0.532-0.14-0.829-0.189c-0.299-0.06-0.603-0.132-0.969-0.186
			c-0.345-0.076-0.715-0.135-1.097-0.184c-0.368-0.082-0.776-0.08-1.158-0.154c-0.403-0.01-0.794-0.077-1.2-0.08
			c-0.401-0.033-0.808-0.022-1.213-0.038c-0.405,0.017-0.811,0.008-1.212,0.041c-0.406,0.007-0.797,0.069-1.199,0.082
			c-0.382,0.074-0.79,0.072-1.157,0.155c-0.382,0.048-0.751,0.107-1.096,0.183c-0.361,0.049-0.683,0.133-0.987,0.198
			c-0.309,0.06-0.594,0.111-0.817,0.178c-0.461,0.116-0.775,0.164-0.775,0.164s0.059-0.289,0.251-0.763
			c0.092-0.242,0.22-0.528,0.416-0.818c0.187-0.301,0.415-0.637,0.719-0.948c0.148-0.161,0.311-0.322,0.481-0.492
			c0.18-0.151,0.376-0.296,0.578-0.452c0.401-0.321,0.882-0.551,1.382-0.808c0.517-0.196,1.06-0.427,1.642-0.519
			c0.574-0.15,1.177-0.162,1.776-0.201c0.599,0.039,1.201,0.054,1.776,0.204c0.581,0.096,1.125,0.322,1.641,0.521
			c0.499,0.257,0.981,0.488,1.381,0.808c0.202,0.156,0.398,0.299,0.578,0.452c0.17,0.17,0.334,0.329,0.481,0.491
			c0.299,0.306,0.545,0.654,0.737,0.96c0.208,0.3,0.323,0.576,0.404,0.807C213.029,94.398,213.099,94.696,213.099,94.696z"/>
		<path d="M268.29,94.696c0,0-0.303-0.04-0.778-0.17c-0.234-0.078-0.532-0.14-0.829-0.189c-0.299-0.06-0.603-0.132-0.969-0.186
			c-0.345-0.076-0.715-0.135-1.097-0.184c-0.368-0.082-0.776-0.08-1.158-0.154c-0.403-0.01-0.794-0.077-1.2-0.08
			c-0.401-0.033-0.808-0.022-1.213-0.038c-0.405,0.017-0.811,0.008-1.212,0.041c-0.406,0.007-0.797,0.069-1.199,0.082
			c-0.382,0.074-0.79,0.073-1.157,0.155c-0.382,0.048-0.752,0.107-1.097,0.183c-0.361,0.049-0.683,0.133-0.987,0.198
			c-0.309,0.06-0.594,0.111-0.817,0.178c-0.461,0.116-0.775,0.164-0.775,0.164s0.059-0.289,0.251-0.763
			c0.092-0.242,0.22-0.528,0.416-0.818c0.187-0.301,0.415-0.637,0.719-0.948c0.148-0.161,0.311-0.322,0.481-0.492
			c0.18-0.151,0.376-0.296,0.578-0.452c0.401-0.321,0.882-0.551,1.382-0.808c0.517-0.196,1.06-0.427,1.642-0.519
			c0.574-0.15,1.177-0.162,1.776-0.201c0.599,0.039,1.201,0.054,1.776,0.203c0.581,0.096,1.125,0.322,1.641,0.521
			c0.499,0.257,0.981,0.488,1.381,0.808c0.202,0.156,0.398,0.299,0.578,0.452c0.17,0.17,0.334,0.329,0.481,0.491
			c0.299,0.306,0.545,0.654,0.737,0.96c0.208,0.3,0.323,0.576,0.404,0.807C268.22,94.398,268.29,94.696,268.29,94.696z"/>
	</g>
	<path style="fill:#FCCF92;" d="M167.038,188.84v38.3c-11.7,9.64-20.43,22.29-24.93,37.53c-2.22,7.53-3.41,15.7-3.41,24.46v0.22
		c0.01,2.88-4.11,3.42-4.77,0.61c-1.76-7.52-2.7-15.36-2.7-23.42c0-0.62,0.01-1.25,0.02-1.87
		C131.788,234.33,145.558,207.21,167.038,188.84z"/>
	<path style="fill:#808080;" d="M223.568,397.85c-0.36,3.41-0.72,6.8-1.09,10.15c-2.64,24.02-5.48,45.94-6.96,57.04
		c-0.28,2.17-3.27,2.54-4.07,0.51c-6.49-16.37-11.17-36.2-14.5-57.55c-0.53-3.35-1.02-6.74-1.48-10.15L223.568,397.85
		L223.568,397.85z"/>
	<path style="fill:#808080;" d="M271.828,397.85c-0.46,3.41-0.94,6.8-1.47,10.15c-3.33,21.35-8.01,41.18-14.5,57.55
		c-0.8,2.03-3.79,1.66-4.08-0.51c-1.47-11.1-4.31-33.02-6.95-57.04c-0.37-3.35-0.74-6.74-1.09-10.15L271.828,397.85L271.828,397.85z
		"/>
	<path style="fill:#E8CAAA;" d="M253.978,166.51c11.74,2.53,22.84,7.17,32.84,13.49h-107.78c10.19-6.42,21.59-11.09,33.78-13.59
		c4.81-0.99,8.74-4.3,10.56-8.73c0.35-0.82,0.62-1.69,0.81-2.59l0.13-0.64c2.98,0.31,6.03,0.47,9.13,0.47s6.15-0.15,9.12-0.47
		l0.16,0.76c0.18,0.86,0.43,1.7,0.76,2.49C245.278,162.14,249.178,165.48,253.978,166.51z"/>
	<path style="fill:#FCCF92;" d="M335.648,264.93c0.13,8.6-0.8,16.97-2.67,24.97c-0.66,2.81-4.79,2.34-4.79-0.55v-0.22
		c0-8.75-1.19-16.92-3.41-24.46c-5.05-17.14-15.46-31-29.44-41v-37.68c23.85,18.56,39.74,47.24,40.3,78.68
		C335.648,264.76,335.648,264.84,335.648,264.93z"/>
	<path style="fill:#FBB03B;" d="M335.638,264.67h-10.86c-7.24-24.56-25.48-42.39-49.44-51.77c0.34,5.14,1.18,12.18,2.26,20.7v0.01
		c0.47,3.71,0.99,7.7,1.53,11.93c4.97,39.2,11.86,99.33,2.86,152.31h-96.68c-9.4-55.32-1.5-118.44,3.49-157.38
		c0.91-7,1.71-13.22,2.3-18.47c0.4-3.55,0.71-6.66,0.88-9.27c-24.17,9.34-42.58,27.24-49.87,51.94h-10.86
		c0.4-22.07,7.8-42.45,20.06-58.97c3.41-4.6,7.19-8.9,11.31-12.85c6.64-6.38,14.14-11.88,22.31-16.29
		c5.49-2.97,11.29-5.45,17.33-7.39c3.44-1.1,6.97-2.02,10.56-2.76c4.81-0.99,8.74-4.3,10.56-8.73c4.29,2.5,7.59,6.54,9.12,11.37
		c0.62,1.94,0.95,4.01,0.95,6.15l0.08-1.76c0.57-6.72,4.43-12.51,9.96-15.74c1.79,4.44,5.69,7.78,10.49,8.81
		c21.33,4.59,40.52,16.16,54.93,32.06c3.65,4.04,7,8.35,10,12.91C329.138,227.02,335.288,245.33,335.638,264.67z"/>
	<path style="fill:#4D4D4D;" d="M188.708,56.26l-0.861,27.23c-0.223,7.062-8.773,10.446-13.769,5.45l0,0
		C176.478,77.42,181.618,65.96,188.708,56.26z"/>
	<path style="fill:#4D4D4D;" d="M278.178,56.26l2.469,27.23c0.223,7.062,8.773,10.446,13.769,5.45l0,0
		C292.016,77.42,285.267,65.96,278.178,56.26z"/>
	<path style="opacity:0.29;fill:#4D4D4D;enable-background:new    ;" d="M195.468,397.85h28.1c-0.36,3.41-0.72,6.8-1.09,10.15
		h-25.53C196.418,404.65,195.928,401.26,195.468,397.85z"/>
	<path style="opacity:0.29;fill:#4D4D4D;enable-background:new    ;" d="M271.828,397.85c-0.46,3.41-0.94,6.8-1.47,10.15h-25.53
		c-0.37-3.35-0.74-6.74-1.09-10.15H271.828z"/>
	<path style="fill:#E5952C;" d="M232.498,169.05c0.62,1.94,0.95,4.01,0.95,6.15l-29.995,37.981l-2.385-1.514l31.43-42.597
		L232.498,169.05L232.498,169.05z"/>
	<path style="fill:#808080;" d="M232.129,187.413L232.129,187.413c-0.96,1.143-2.666,1.291-3.809,0.331l-9.659-8.114
		c-1.143-0.96-1.291-2.665-0.331-3.809l0,0c0.96-1.143,2.665-1.291,3.809-0.331l9.659,8.114
		C232.941,184.565,233.089,186.27,232.129,187.413z"/>
	<path style="fill:#808080;" d="M225.832,195.349L225.832,195.349c-0.96,1.143-2.665,1.291-3.809,0.331l-9.659-8.114
		c-1.143-0.96-1.291-2.665-0.331-3.809l0,0c0.96-1.143,2.665-1.291,3.808-0.331l9.659,8.114
		C226.644,192.5,226.792,194.206,225.832,195.349z"/>
	<path style="fill:#808080;" d="M219.535,203.284L219.535,203.284c-0.96,1.143-2.665,1.291-3.809,0.331l-9.659-8.114
		c-1.143-0.96-1.291-2.665-0.331-3.809l0,0c0.96-1.143,2.665-1.291,3.809-0.331l9.659,8.114
		C220.347,200.436,220.496,202.141,219.535,203.284z"/>
	<path style="fill:#808080;" d="M213.238,211.219L213.238,211.219c-0.96,1.143-2.665,1.291-3.809,0.331l-9.659-8.114
		c-1.143-0.96-1.291-2.665-0.331-3.809l0,0c0.96-1.143,2.665-1.291,3.809-0.331l9.659,8.114
		C214.051,208.371,214.199,210.076,213.238,211.219z"/>
	<circle style="fill:#E5952C;" cx="228.568" cy="236.5" r="9.5"/>
	<circle style="fill:#E5952C;" cx="209.068" cy="280" r="9.5"/>
	<circle style="fill:#E5952C;" cx="248.068" cy="274" r="9.5"/>
	<circle style="fill:#E5952C;" cx="268.068" cy="307" r="9.5"/>
	<circle style="fill:#E5952C;" cx="256.068" cy="360" r="9.5"/>
	<circle style="fill:#E5952C;" cx="205.068" cy="350" r="9.5"/>
	<circle style="fill:#E5952C;" cx="226.068" cy="381" r="9.5"/>
	<path style="fill:#E5952C;" d="M197.568,231c0,5-3.86,9.1-8.77,9.47c0.91-7,1.71-13.22,2.3-18.47
		C194.858,223.26,197.568,226.81,197.568,231z"/>
	<circle style="fill:#E5952C;" cx="264.068" cy="189" r="9.5"/>
	<path style="fill:#E5952C;" d="M318.908,211.48c-1.38,3.53-4.82,6.02-8.84,6.02c-5.25,0-9.5-4.25-9.5-9.5
		c0-4.86,3.64-8.86,8.34-9.43C312.558,202.61,315.908,206.92,318.908,211.48z"/>
	<path style="fill:#E5952C;" d="M169.568,202c0,5.25-4.25,9.5-9.5,9.5c-3.94,0-7.31-2.39-8.76-5.8c3.41-4.6,7.19-8.9,11.31-12.85
		C166.628,193.96,169.568,197.64,169.568,202z"/>
	<path style="fill:#E5952C;" d="M203.568,174c0,5.25-4.25,9.5-9.5,9.5c-4.36,0-8.03-2.93-9.14-6.94c5.49-2.97,11.29-5.45,17.33-7.39
		C203.088,170.59,203.568,172.24,203.568,174z"/>
	<path style="fill:#E5952C;" d="M279.128,245.54c-1.68,2.68-4.66,4.46-8.06,4.46c-5.25,0-9.5-4.25-9.5-9.5s4.25-9.5,9.5-9.5
		c2.53,0,4.83,0.99,6.53,2.6v0.01C278.068,237.32,278.588,241.31,279.128,245.54z"/>
	<circle style="fill:#E5952C;" cx="227.068" cy="318" r="9.5"/>
</g>
<g>
</g>
<g>
</g>
<g>
</g>
<g>
</g>
<g>
</g>
<g>
</g>
<g>
</g>
<g>
</g>
<g>
</g>
<g>
</g>
<g>
</g>
<g>
</g>
<g>
</g>
<g>
</g>
<g>
</g>
</svg>
